<mxfile host="Electron" agent="Mozilla/5.0 (Macintosh; Intel Mac OS X 10_15_7) AppleWebKit/537.36 (KHTML, like Gecko) draw.io/26.0.9 Chrome/128.0.6613.186 Electron/32.2.5 Safari/537.36" version="26.0.9">
  <diagram name="Seite-1" id="gkl9eLOdX-bpgmcwseyp">
    <mxGraphModel dx="194" dy="456" grid="1" gridSize="10" guides="1" tooltips="1" connect="1" arrows="1" fold="1" page="1" pageScale="1" pageWidth="827" pageHeight="1169" math="0" shadow="0">
      <root>
        <mxCell id="0" />
        <mxCell id="1" parent="0" />
        <mxCell id="ET2XU4VfjTMw3kdMQiyS-1" value="Laser Housing" style="rounded=0;whiteSpace=wrap;html=1;fillColor=none;connectable=0;allowArrows=0;verticalAlign=top;" vertex="1" parent="1">
          <mxGeometry x="30" y="112.5" width="750" height="457.5" as="geometry" />
        </mxCell>
        <mxCell id="ET2XU4VfjTMw3kdMQiyS-2" value="DOOR 2 SENSOR" style="rounded=0;whiteSpace=wrap;html=1;fillColor=none;connectable=0;allowArrows=0;verticalAlign=middle;align=left;" vertex="1" parent="1">
          <mxGeometry x="40" y="120" width="120" height="40" as="geometry" />
        </mxCell>
        <mxCell id="ET2XU4VfjTMw3kdMQiyS-3" value="Y-LIMIT" style="rounded=0;whiteSpace=wrap;html=1;fillColor=none;connectable=0;allowArrows=0;verticalAlign=middle;align=left;" vertex="1" parent="1">
          <mxGeometry x="40" y="170" width="120" height="40" as="geometry" />
        </mxCell>
        <mxCell id="ET2XU4VfjTMw3kdMQiyS-4" value="NOZZLE PORT" style="rounded=0;whiteSpace=wrap;html=1;fillColor=none;connectable=0;allowArrows=0;verticalAlign=middle;align=left;" vertex="1" parent="1">
          <mxGeometry x="80" y="220" width="120" height="40" as="geometry" />
        </mxCell>
        <mxCell id="ET2XU4VfjTMw3kdMQiyS-5" value="X2-LIMIT" style="rounded=0;whiteSpace=wrap;html=1;fillColor=none;connectable=0;allowArrows=0;verticalAlign=middle;align=left;" vertex="1" parent="1">
          <mxGeometry x="40" y="320" width="120" height="40" as="geometry" />
        </mxCell>
        <mxCell id="ET2XU4VfjTMw3kdMQiyS-6" value="X-STEPPER" style="rounded=0;whiteSpace=wrap;html=1;fillColor=none;connectable=0;allowArrows=0;verticalAlign=middle;align=left;" vertex="1" parent="1">
          <mxGeometry x="40" y="370" width="120" height="40" as="geometry" />
        </mxCell>
        <mxCell id="ET2XU4VfjTMw3kdMQiyS-7" value="Y-LIMIT" style="rounded=0;whiteSpace=wrap;html=1;fillColor=none;connectable=0;allowArrows=0;verticalAlign=middle;align=left;" vertex="1" parent="1">
          <mxGeometry x="40" y="417.5" width="120" height="40" as="geometry" />
        </mxCell>
        <mxCell id="ET2XU4VfjTMw3kdMQiyS-8" value="Y-STEPPER" style="rounded=0;whiteSpace=wrap;html=1;fillColor=none;connectable=0;allowArrows=0;verticalAlign=middle;align=left;" vertex="1" parent="1">
          <mxGeometry x="80" y="470" width="120" height="40" as="geometry" />
        </mxCell>
        <mxCell id="ET2XU4VfjTMw3kdMQiyS-9" value="X1-LIMIT" style="rounded=0;whiteSpace=wrap;html=1;fillColor=none;connectable=0;allowArrows=0;verticalAlign=middle;align=left;" vertex="1" parent="1">
          <mxGeometry x="80" y="270" width="120" height="40" as="geometry" />
        </mxCell>
        <mxCell id="ET2XU4VfjTMw3kdMQiyS-10" value="LED-STRIP" style="rounded=0;whiteSpace=wrap;html=1;fillColor=none;connectable=0;allowArrows=0;verticalAlign=middle;align=left;" vertex="1" parent="1">
          <mxGeometry x="80" y="520" width="120" height="40" as="geometry" />
        </mxCell>
        <mxCell id="ET2XU4VfjTMw3kdMQiyS-11" value="BACK" style="rounded=0;whiteSpace=wrap;html=1;fillColor=none;connectable=0;allowArrows=0;verticalAlign=top;" vertex="1" parent="1">
          <mxGeometry x="30" y="585" width="750" height="285" as="geometry" />
        </mxCell>
        <mxCell id="ET2XU4VfjTMw3kdMQiyS-12" value="LASER TUBE COOLING" style="rounded=0;whiteSpace=wrap;html=1;fillColor=none;connectable=0;allowArrows=0;verticalAlign=middle;align=left;" vertex="1" parent="1">
          <mxGeometry x="70" y="600" width="210" height="80" as="geometry" />
        </mxCell>
        <mxCell id="ET2XU4VfjTMw3kdMQiyS-13" value="LASER TUBE" style="rounded=0;whiteSpace=wrap;html=1;fillColor=none;connectable=0;allowArrows=0;verticalAlign=middle;align=left;" vertex="1" parent="1">
          <mxGeometry x="70" y="690" width="210" height="80" as="geometry" />
        </mxCell>
        <mxCell id="ET2XU4VfjTMw3kdMQiyS-14" value="LASER POWER SUPPLY (PSU)" style="rounded=0;whiteSpace=wrap;html=1;fillColor=none;connectable=0;allowArrows=0;verticalAlign=middle;align=left;" vertex="1" parent="1">
          <mxGeometry x="70" y="780" width="210" height="80" as="geometry" />
        </mxCell>
        <mxCell id="ET2XU4VfjTMw3kdMQiyS-15" value="TP_LINK" style="rounded=0;whiteSpace=wrap;html=1;fillColor=none;connectable=0;allowArrows=0;verticalAlign=middle;align=left;" vertex="1" parent="1">
          <mxGeometry x="70" y="900" width="120" height="40" as="geometry" />
        </mxCell>
      </root>
    </mxGraphModel>
  </diagram>
</mxfile>
